<svg width="32" height="32" viewBox="0 0 32 32" fill="none" xmlns="http://www.w3.org/2000/svg">
<path d="M4.18017 8.48053L6.67832 8.07782C8.28576 7.81894 9.66356 6.76183 10.3664 5.24449L11.4589 2.89297C13.2333 -0.918368 18.4662 -0.975897 20.3172 2.79229L21.4584 5.12224C22.196 6.61801 23.5947 7.64635 25.2091 7.87647L27.7142 8.22165C31.7711 8.78256 33.4412 13.9099 30.5394 16.8942L28.7511 18.7352C27.5959 19.9217 27.088 21.6189 27.3802 23.2656L27.8325 25.8329C28.5701 29.9966 24.3671 33.2255 20.7208 31.291L18.4732 30.1045C18.0278 29.8672 17.5616 29.7162 17.0815 29.6299L17.9165 21.2593C18.1531 20.7631 18.6263 20.0224 19.3361 19.7707L23.8313 18.2821C24.5411 18.0376 24.5411 17.7859 23.8313 17.5343L19.0995 16.2902C18.6263 16.0457 17.9165 15.5495 17.6799 14.8016L16.2603 10.0914C16.0237 9.34348 15.7872 9.34348 15.5506 10.0914L14.3676 15.0533C14.131 15.5495 13.6578 16.2902 12.948 16.5419L8.45276 18.0304C7.74298 18.2749 7.74298 18.5266 8.45276 18.7711L13.1846 20.0152C13.6578 20.2669 14.3676 20.7631 14.6042 21.5038L15.5923 29.5723C15.0008 29.6514 14.4163 29.8384 13.8735 30.1404L11.6537 31.3773C8.04916 33.3837 3.78353 30.2555 4.43068 26.0774L4.83428 23.503C5.09175 21.8418 4.54202 20.159 3.36601 19.0013L1.53589 17.1963C-1.42848 14.2766 0.137207 9.11336 4.18713 8.45896L4.18017 8.48053Z" fill="#1C2339"/>
</svg>
