<svg width="24" height="24" viewBox="0 0 24 24" fill="none" xmlns="http://www.w3.org/2000/svg">
<path d="M19.001 6.41618L4.70896 20.7062C4.52941 20.8874 4.28738 20.9932 4.03241 21.0019C3.77743 21.0105 3.52879 20.9214 3.33738 20.7527C3.14596 20.584 3.02625 20.3486 3.00275 20.0946C2.97925 19.8405 3.05373 19.5871 3.21095 19.3862L3.29495 19.2912L17.587 5.00118L12.499 5.00018C12.254 5.00015 12.0176 4.91022 11.8346 4.74747C11.6515 4.58471 11.5346 4.36043 11.506 4.11718L11.5 4.00018C11.5 3.75509 11.5901 3.51856 11.753 3.3355C11.916 3.15245 12.1405 3.03561 12.384 3.00718L12.5 3.00018L20.061 3.00218L20.157 3.01218L20.234 3.02718L20.311 3.04918L20.381 3.07418L20.471 3.11618L20.56 3.17018L20.651 3.24018L20.619 3.21318C20.6805 3.26153 20.7362 3.31691 20.785 3.37818L20.836 3.44818L20.876 3.51218L20.908 3.57718L20.942 3.65818L20.967 3.73818L20.991 3.85018L20.998 3.91018L21.002 4.00018V11.5042C21.0017 11.7591 20.9041 12.0042 20.7291 12.1895C20.5541 12.3749 20.315 12.4864 20.0606 12.5014C19.8061 12.5163 19.5556 12.4335 19.3601 12.2699C19.1647 12.1063 19.0391 11.8743 19.009 11.6212L19.002 11.5042V6.41618L4.70996 20.7062L19 6.41618H19.001Z" fill="#1C2339"/>
</svg>
