<svg width="32" height="32" viewBox="0 0 32 32" fill="none" xmlns="http://www.w3.org/2000/svg">
<path d="M20.6327 31.3295L18.3928 30.1283C16.9529 29.3587 15.2278 29.3658 13.7949 30.1571L11.5689 31.387C7.95874 33.3795 3.7086 30.229 4.36942 26.0499L4.77983 23.4749C5.04416 21.8133 4.50159 20.1302 3.33297 18.965L1.51744 17.1524C-1.43192 14.2177 0.161014 9.06041 4.20248 8.42744L6.6997 8.03903C8.30654 7.78728 9.69079 6.73712 10.4003 5.21943L11.5063 2.87455C13.294 -0.930468 18.5319 -0.966432 20.3614 2.81701L21.4952 5.1475C22.2256 6.6508 23.6168 7.68658 25.2306 7.91675L27.7348 8.27639C31.7901 8.85901 33.4387 13.9947 30.5241 16.9654L28.7295 18.7995C27.5748 19.9792 27.0531 21.6767 27.3383 23.331L27.7835 25.8989C28.4999 30.0636 24.2846 33.2716 20.6535 31.3295H20.6327Z" fill="white"/>
</svg>
