<svg width="24" height="24" viewBox="0 0 24 24" fill="none" xmlns="http://www.w3.org/2000/svg">
<path d="M3.13513 6.3604L5.00874 6.05837C6.21432 5.86421 7.24767 5.07138 7.77479 3.93337L8.59417 2.16973C9.925 -0.688776 13.8497 -0.731923 15.2379 2.09422L16.0938 3.84168C16.647 4.96351 17.696 5.73476 18.9068 5.90735L20.7857 6.16624C23.8283 6.58692 25.0809 10.4324 22.9046 12.6707L21.5633 14.0514C20.697 14.9413 20.316 16.2141 20.5352 17.4492L20.8744 19.3747C21.4276 22.4975 18.2754 24.9191 15.5406 23.4683L13.8549 22.5784C13.5209 22.4004 13.1712 22.2871 12.8111 22.2224L13.4374 15.9445C13.6148 15.5723 13.9697 15.0168 14.502 14.828L17.8735 13.7116C18.4058 13.5282 18.4058 13.3395 17.8735 13.1507L14.3246 12.2176C13.9697 12.0343 13.4374 11.6621 13.2599 11.1012L12.1953 7.56852C12.0178 7.00761 11.8404 7.00761 11.6629 7.56852L10.7757 11.29C10.5983 11.6621 10.2434 12.2176 9.71103 12.4064L6.33957 13.5228C5.80724 13.7062 5.80724 13.895 6.33957 14.0784L9.88847 15.0114C10.2434 15.2002 10.7757 15.5723 10.9531 16.1278L11.6942 22.1792C11.2506 22.2386 10.8122 22.3788 10.4051 22.6053L8.7403 23.533C6.03687 25.0377 2.83764 22.6916 3.32301 19.5581L3.62571 17.6272C3.81881 16.3813 3.40651 15.1193 2.52451 14.2509L1.15192 12.8972C-1.07136 10.7075 0.102907 6.83502 3.14035 6.34422L3.13513 6.3604Z" fill="#1C2339"/>
</svg>
