<svg width="32" height="32" viewBox="0 0 32 32" fill="none" xmlns="http://www.w3.org/2000/svg">
<path d="M10.044 31.5557L16.4489 23.7718C17.4806 22.5534 19.2627 22.1879 20.3883 22.1067L30.6521 23.5958C32.2332 23.7041 32.4208 23.2303 31.2282 22.1879L23.5371 15.7171C22.3311 14.6747 21.9694 12.8742 21.889 11.7371L23.3763 1.36748C23.4835 -0.229924 23.0145 -0.432984 21.9828 0.785376L15.5645 8.55581C14.5328 9.77417 12.7507 10.1397 11.6385 10.2209L1.34792 8.74533C-0.23319 8.63703 -0.420779 9.11084 0.771754 10.1532L8.47632 16.6241C9.68225 17.6664 10.044 19.4669 10.1244 20.604L8.65051 30.9736C8.73091 32.1108 9.19988 32.3003 10.044 31.5557Z" fill="white"/>
</svg>
